# xmcd CD database file
# Copyright (C) 1993-1998 Ti Kan
# 
# Track frame offsets:
#     150
#     12995
#     29092
#     31295
#     44105
#     59990
#     74760
#     89455
#     97807
#     123077
#     144882
#     164770
#     172940
#     193752
#     211945
# 
# Disc length: 3006 seconds
# 
# Revision: 1
# Processed by: cddbd v1.4b41PL1 Copyright (c) Steve Scherf et al.
# Submitted via: DiscPlay 4.0.4
# 
DISCID=df0bbc0f
DTITLE=Spencer Bohren - Live In New Orleans
DYEAR=1900
DGENRE=
TTITLE0=My Baby
TTITLE1=Take It Slow And Easy
TTITLE2=Introduction
TTITLE3=Key To The Highway
TTITLE4=When A Man Loves A Woman
TTITLE5=Eight More Miles To Louisville
TTITLE6=Like A Miner Loves Gold
TTITLE7=The Sky Is Crying
TTITLE8=This Body Is A Prison
TTITLE9=I'm Minding' My Business
TTITLE10=Dark Road Blues
TTITLE11=Maple Leaf Rag
TTITLE12=Your Mama And Your Papa
TTITLE13=Hoodoo You Love
TTITLE14=Walkin' After Midnight
EXTD=
EXTT0=
EXTT1=
EXTT2=
EXTT3=
EXTT4=
EXTT5=
EXTT6=
EXTT7=
EXTT8=
EXTT9=
EXTT10=
EXTT11=
EXTT12=
EXTT13=
EXTT14=
PLAYORDER=
